<svg width="89" height="103" viewBox="0 0 89 103" fill="none" xmlns="http://www.w3.org/2000/svg">
<g clip-path="url(#clip0_17_128)">
<path d="M76.6424 30.113L48.5228 10.4969C47.4146 9.72404 45.9264 9.67463 44.7644 10.3699L12.0171 29.9854C10.6116 30.8271 10.0611 32.5245 10.7206 33.9794L41.1541 101.07C41.6855 102.242 42.8952 103 44.2319 103C45.5686 103 46.7784 102.242 47.3099 101.07L77.7434 33.9794C78.3672 32.6028 77.9102 30.997 76.6424 30.113Z" fill="#FBC44C"/>
<path d="M76.6427 30.1133L48.523 10.4973C47.6877 9.91459 46.6369 9.74492 45.6717 9.99424L65.4931 23.8213C66.7611 24.7053 67.2181 26.3117 66.594 27.6878L37.2305 92.4196L41.1546 101.07C41.6859 102.242 42.8956 103.001 44.2323 103.001C45.5691 103.001 46.7788 102.242 47.3101 101.07L77.7435 33.9798C78.3676 32.603 77.9106 30.9974 76.6427 30.1133Z" fill="#FE9700"/>
<path d="M50.1809 58.5165C48.781 58.5165 47.6384 57.4319 47.6384 56.0939C47.6384 54.756 48.7644 53.6714 50.1636 53.6714H50.1809C51.5807 53.6714 52.715 54.756 52.715 56.0939C52.715 57.4319 51.5807 58.5165 50.1809 58.5165ZM35.6245 34.0892C34.2246 34.0892 33.082 33.0046 33.082 31.6667C33.082 30.3288 34.208 29.2441 35.6072 29.2441H35.6245C37.0243 29.2441 38.1586 30.3288 38.1586 31.6667C38.1586 33.0046 37.0243 34.0892 35.6245 34.0892ZM40.4668 68.7397C39.067 68.7397 37.9244 67.655 37.9244 66.3172C37.9244 64.9793 39.0503 63.8947 40.4496 63.8947H40.4668C41.8666 63.8947 43.0009 64.9793 43.0009 66.3172C43.0009 67.655 41.8666 68.7397 40.4668 68.7397Z" fill="#12C659"/>
<path d="M85.1407 13.8944C61.4376 -4.6319 27.0296 -4.63104 3.32652 13.8944C1.34685 15.4416 0.138306 17.723 0.0111691 20.1543C-0.115076 22.5595 0.833695 24.9143 2.6139 26.616L11.1889 34.814C12.5071 36.0758 14.6469 36.0749 15.9668 34.814C31.5535 19.9161 56.9122 19.9185 72.4955 34.8155C73.1547 35.4464 74.0201 35.762 74.8845 35.762C75.7489 35.762 76.6135 35.4464 77.2735 34.8164L85.8535 26.616C87.6328 24.9142 88.5814 22.5595 88.4552 20.1543C88.328 17.723 87.1196 15.4416 85.1407 13.8944Z" fill="#FE623A"/>
<path d="M85.1417 13.8938C74.9268 5.91019 62.7233 1.3758 50.2461 0.273438C56.2597 2.55554 61.9842 5.72973 67.1915 9.79954C69.1704 11.3467 70.379 13.6281 70.506 16.0593C70.6322 18.4645 69.6836 20.8192 67.9041 22.521L62.3752 27.8053C66.0225 29.5789 69.45 31.9028 72.4965 34.8151C73.1556 35.4459 74.0209 35.7614 74.8855 35.7614C75.7501 35.7614 76.6145 35.4459 77.2745 34.8159L85.8544 26.6154C87.6338 24.9136 88.5824 22.5589 88.4563 20.1537C88.329 17.7224 87.1206 15.4411 85.1417 13.8938Z" fill="#EE6C00"/>
<path d="M22.2116 39.1931C19.2955 39.1931 16.5481 40.2663 14.4336 42.1611L23.0254 61.1014C28.975 60.6993 33.6911 55.9551 33.6911 50.1668C33.6911 44.1161 28.5412 39.1931 22.2116 39.1931ZM54.8996 29.2441C49.8347 29.2441 45.7134 33.184 45.7134 38.0258C45.7134 42.8676 49.8347 46.8075 54.8996 46.8075C59.9644 46.8075 64.0858 42.8676 64.0858 38.0258C64.0858 33.184 59.9645 29.2441 54.8996 29.2441ZM58.2529 72.3011C56.3037 71.5866 54.1803 71.6419 52.2747 72.454C50.3684 73.267 48.9074 74.7409 48.1607 76.6035C47.4141 78.4662 47.4711 80.496 48.3208 82.3185C49.1713 84.1408 50.7122 85.5367 52.6615 86.2513C52.9592 86.36 53.2661 86.4121 53.5672 86.4121C53.7102 86.4121 53.847 86.3742 53.9863 86.3514L59.7132 73.726C59.4688 73.0952 58.9618 72.5603 58.2529 72.3011Z" fill="#BE360C"/>
</g>
<defs>
<clipPath id="clip0_17_128">
<rect width="88.4663" height="103" fill="white"/>
</clipPath>
</defs>
</svg>
