<svg width="79" height="111" viewBox="0 0 79 111" fill="none" xmlns="http://www.w3.org/2000/svg">
<path d="M75.4632 7.78125H2.63917C1.18012 7.78125 0 8.9726 0 10.4456V107.703C0 109.176 1.18012 110.368 2.63917 110.368H75.4417C76.9008 110.368 78.0809 109.176 78.0809 107.703V10.4456C78.1023 8.9726 76.9222 7.78125 75.4632 7.78125Z" fill="#FBC44C"/>
<path d="M75.4632 7.78125H2.63917C1.18012 7.78125 0 8.97262 0 10.4456V11.637C0 10.164 1.18012 8.97262 2.63917 8.97262H75.4417C76.9008 8.97262 78.0809 10.164 78.0809 11.637V10.4456C78.1023 8.97262 76.9222 7.78125 75.4632 7.78125Z" fill="#FFE3A6"/>
<path d="M53.8772 105.515H8.28174C5.98587 105.515 4.11914 103.631 4.11914 101.313V16.835C4.11914 14.5173 5.98587 12.6328 8.28174 12.6328H69.8195C72.1154 12.6328 73.9821 14.5173 73.9821 16.835V85.2405L53.8772 105.515Z" fill="#EFF3F5"/>
<path d="M53.877 105.517V89.4444C53.877 87.1267 55.7437 85.2422 58.0396 85.2422H73.9604L53.877 105.517Z" fill="#DBDFE0"/>
<path d="M63.9408 41.7676H15.0195V45.6882H63.9408V41.7676Z" fill="#DBDFE0"/>
<path d="M63.9408 53.248H15.0195V57.1687H63.9408V53.248Z" fill="#12C659"/>
<path d="M63.9408 64.7285H15.0195V68.6492H63.9408V64.7285Z" fill="#DBDFE0"/>
<path d="M63.9408 76.209H15.0195V80.1296H63.9408V76.209Z" fill="#12C659"/>
<path d="M44.6512 87.6895H15.0195V91.6101H44.6512V87.6895Z" fill="#DBDFE0"/>
<path d="M63.9408 30.2012H15.0195V34.1218H63.9408V30.2012Z" fill="#12C659"/>
<path d="M53.1473 6.37352H45.0367C45.0367 3.03771 42.3546 0.330078 39.0503 0.330078C35.7459 0.330078 33.0639 3.03771 33.0639 6.37352H24.9532C22.4857 6.37352 20.4902 8.38801 20.4902 10.879V16.6842H57.6103V10.879C57.6103 8.38801 55.6148 6.37352 53.1473 6.37352Z" fill="#FE623A"/>
<path d="M57.6103 15.2539H20.4902V16.6836H57.6103V15.2539Z" fill="#D68751"/>
</svg>
