<svg width="104" height="107" viewBox="0 0 104 107" fill="none" xmlns="http://www.w3.org/2000/svg">
<path d="M37.2201 92.6602H23.6895C23.9077 94.643 24.1259 96.6258 24.5624 97.5071C25.2171 99.0493 26.3083 106.32 26.3083 106.32H36.7836C36.7836 106.32 37.0019 100.812 36.7836 99.4899C36.7836 97.9477 37.2201 93.1008 37.2201 92.6602ZM38.093 94.2024C38.3113 95.5242 38.5295 99.0493 39.1842 101.032C39.8389 103.456 39.6207 106.099 39.6207 106.099H52.0602C52.0602 106.099 54.0243 98.829 52.4966 94.2024H38.093Z" fill="#FFD15C"/>
<path d="M53.3689 97.7288C53.3689 97.7288 43.1118 96.6272 38.7471 95.7459C34.3824 95.085 23.6888 95.085 21.5064 91.1193C21.5064 91.1193 21.7247 87.374 21.5064 85.3911C21.2882 83.188 19.9788 78.1208 21.9429 75.2567C23.907 72.3926 24.1253 72.3926 24.1253 72.3926L52.9325 78.5614C52.9325 78.5614 54.0236 85.3911 54.2419 88.0349C54.2419 90.6787 53.3689 97.7288 53.3689 97.7288Z" fill="#67C5B8"/>
<path d="M59.9159 38.0229L60.7889 42.4292L55.333 46.8354L54.2418 40.887L59.9159 38.0229ZM22.8158 40.226C22.8158 40.226 21.0699 41.3276 20.4152 41.5479C19.9787 41.7682 14.5228 43.3104 11.2493 43.3104C8.19398 43.5307 3.82926 43.3104 3.82926 43.3104C3.82926 43.3104 1.42866 42.8698 0.555716 41.1073C-0.317229 39.5651 -0.0989924 37.8026 0.773952 36.9213C1.6469 36.04 2.51984 34.7181 3.17455 34.0572C3.82926 33.3963 6.01162 30.5322 9.28516 28.7697C12.7769 27.0071 16.0505 24.5837 16.7052 23.9227C17.3599 23.2618 18.4511 22.8212 19.324 22.3805C20.197 21.9399 21.7246 20.1774 22.3793 19.2961C23.034 18.4149 23.907 17.093 23.907 17.093C23.907 17.093 24.1252 16.432 24.3435 16.2117L24.7799 14.4492C24.7799 14.4492 26.5258 14.4492 25.6529 17.093L25.2164 17.9743C25.2164 17.9743 26.0893 18.1946 26.744 18.4149C27.3988 18.6352 28.9264 19.9571 28.9264 20.618C28.9264 21.279 28.4899 21.0587 28.4899 21.0587C28.4899 21.0587 29.1446 21.7196 28.7082 22.3805C28.4899 23.0415 28.0535 22.8212 28.0535 22.8212C28.0535 22.8212 28.4899 23.2618 28.2717 23.7024L32.2 23.9227C33.0729 23.9227 33.0729 25.0243 32.2 25.0243C32.2 25.0243 30.4541 25.4649 29.5811 25.2446C28.7082 25.2446 27.3988 25.0243 26.5258 25.2446C25.8711 25.4649 23.6887 26.5665 22.8158 26.5665C21.9429 26.5665 21.2881 26.7868 20.6334 27.2275C20.6334 27.6681 12.7769 34.7182 12.7769 34.7182L16.487 32.7353C16.487 32.7353 20.197 33.1759 21.5064 34.2775C23.034 35.3791 22.8158 40.226 22.8158 40.226Z" fill="#FFD15C"/>
<path d="M43.3299 7.61979C43.3299 7.61979 43.9846 8.50103 43.5481 9.60258C43.1117 10.7041 41.584 8.50103 41.584 8.50103C41.584 8.50103 42.0205 6.73856 43.3299 7.61979Z" fill="#FE5F38"/>
<path d="M42.0208 20.6184C43.1055 20.6184 43.9849 18.0538 43.9849 14.8903C43.9849 11.7267 43.1055 9.16211 42.0208 9.16211C40.936 9.16211 40.0566 11.7267 40.0566 14.8903C40.0566 18.0538 40.936 20.6184 42.0208 20.6184Z" fill="#67C5B8"/>
<path d="M43.1107 16.433C43.7134 16.433 44.2019 15.3479 44.2019 14.0095C44.2019 12.671 43.7134 11.5859 43.1107 11.5859C42.5081 11.5859 42.0195 12.671 42.0195 14.0095C42.0195 15.3479 42.5081 16.433 43.1107 16.433Z" fill="#FFD15C"/>
<path d="M29.7991 17.5341C30.6428 17.5341 31.3268 16.1531 31.3268 14.4496C31.3268 12.7462 30.6428 11.3652 29.7991 11.3652C28.9554 11.3652 28.2715 12.7462 28.2715 14.4496C28.2715 16.1531 28.9554 17.5341 29.7991 17.5341Z" fill="#FFD15C"/>
<path d="M40.9291 7.40007C40.9291 7.40007 43.3297 12.0267 43.1115 16.2126C42.8932 20.3986 41.802 21.7205 41.802 21.7205L43.1115 24.8049L44.2026 25.9064L43.3297 32.5159L38.3103 32.0752L32.4179 25.4658L32.6361 24.3642C32.6361 24.3642 32.4179 22.3814 31.9814 21.7205C31.9814 21.7205 29.1443 18.1955 29.5808 12.4673C30.0173 6.73913 35.4732 6.2985 35.4732 6.2985C35.4732 6.2985 39.8379 5.85787 40.9291 7.40007Z" fill="#FFD15C"/>
<path d="M36.1275 29.6517C37.2186 29.4314 38.528 28.9908 39.401 28.5501C41.3651 27.4486 40.2739 27.0079 38.7463 27.2282C37.0004 27.4486 38.3098 26.5673 38.3098 26.5673C41.3651 24.1438 41.8016 21.5 41.8016 21.5L41.3651 21.9406C40.2739 23.2625 38.528 24.1438 36.7822 24.3641H35.9092C34.5998 24.1438 32.1992 21.7203 32.1992 21.7203C32.6357 22.3813 32.8539 24.3641 32.8539 24.3641L32.6357 25.4657L36.1275 29.6517Z" fill="#F5B54C"/>
<path d="M36.782 6.51861C36.782 6.51861 33.945 6.73893 32.4173 8.72175C30.8897 10.7046 28.4891 14.4499 28.4891 16.2124C28.4891 17.9749 29.362 19.5171 29.362 19.5171C29.362 19.5171 28.2709 18.1952 28.0526 17.0936C27.8344 15.7718 27.1797 15.1108 27.1797 13.7889C27.1797 12.4671 28.0526 10.0436 29.362 8.06081C30.8897 6.2983 36.5638 4.97642 36.782 6.51861Z" fill="#67C5B8"/>
<path d="M36.5646 29.2102L37.6557 28.7696C37.6557 28.7696 38.3104 28.5493 38.5287 28.5493C38.7469 28.7696 40.2746 30.9727 40.2746 30.9727L42.8934 28.3289C43.3299 27.668 44.2028 27.0071 44.2028 27.0071C44.2028 27.0071 47.4764 26.3461 49.4405 26.5664C51.4046 26.7867 53.1505 25.9055 55.3329 27.0071C57.5152 28.1086 59.9158 32.5149 60.3523 38.2431C60.3523 38.2431 56.2058 41.5478 54.2417 41.7681C54.2417 41.7681 55.1146 60.7151 54.8964 64.0198C54.6782 67.3245 52.9323 78.1199 55.9876 80.1027C55.9876 80.1027 49.2223 81.6449 44.6393 81.2043C39.8381 80.7636 28.4898 80.1027 20.8516 76.3574C20.8516 76.3574 21.288 71.9511 23.2522 68.6464C25.2163 65.3417 29.3628 57.4104 29.3628 56.3088C29.3628 55.2072 29.1445 47.2759 27.1804 44.4119C24.998 41.5478 23.6886 41.1071 23.6886 41.1071C23.6886 41.1071 21.9427 41.9884 20.6333 41.5478C20.6333 41.5478 21.7245 41.1071 21.7245 40.4462C21.7245 39.565 21.5063 37.3618 19.7604 35.1587C18.0145 32.9555 16.7051 32.9555 16.7051 32.9555C16.7051 32.9555 19.5421 31.4133 21.0698 30.9727C22.8157 30.3118 24.1251 30.3118 24.7798 29.8711C25.4345 29.4305 27.1804 29.4305 27.8351 29.4305C28.2716 29.4305 28.7081 28.9899 29.1445 28.7696C29.581 28.5493 31.5451 27.0071 31.5451 27.0071L33.291 27.4477L36.5646 29.2102Z" fill="#12C659"/>
<path d="M75.193 66.2244L47.477 56.7508L46.8223 53.4461L64.0629 51.6836L76.2842 60.0556L75.4112 66.0041" fill="#EA4B3B"/>
<path d="M101.6 46.6165L103.127 43.9727L74.9748 36.2617L46.8223 53.4462L74.5383 62.4791L101.6 46.6165Z" fill="#F26F5A"/>
<path d="M74.5391 62.4791L75.1938 66.2245L104.001 47.4977L103.128 43.9727L74.5391 62.4791Z" fill="#FE5F38"/>
<path d="M74.1012 61.5969L46.3852 51.9031L45.7305 48.5984L62.9711 46.8359L75.1924 55.4282L74.1012 61.3766" fill="#EA4B3B"/>
<path d="M100.508 41.9895L102.035 39.3458L73.883 31.6348L45.7305 48.599L73.4465 57.8522L100.508 41.9895Z" fill="#F26F5A"/>
<path d="M73.4473 57.8521L74.102 61.5974L102.909 42.8707L102.036 39.3457L73.4473 57.8521Z" fill="#FE5F38"/>
<path d="M32.8553 24.3633C32.8553 24.3633 32.8553 25.4649 33.2917 25.9055C33.7282 26.3461 37.0018 28.7696 37.6565 28.7696C37.6565 28.7696 36.1288 31.6338 33.2917 31.4134C33.2917 31.4134 31.3276 29.4306 31.1094 28.329C31.1094 27.2274 31.1094 27.0071 31.3276 26.5665C31.7641 26.1258 32.8553 24.8039 32.8553 24.3633ZM41.3665 29.8712L43.3306 28.99C43.3306 28.99 45.513 29.4306 47.0407 29.6509L45.513 25.0242L43.3306 24.3633C43.3306 24.3633 44.2036 25.6852 43.7671 26.7868C43.1124 28.1087 41.3665 29.8712 41.3665 29.8712Z" fill="#48B9A5"/>
<path d="M42.457 20.398C44.2029 23.7028 44.8576 27.2278 45.7306 30.9732C45.9488 32.295 46.3853 33.6169 46.167 34.9388C45.9488 36.2607 45.2941 37.5826 43.9847 38.2435C45.5123 38.4639 47.04 38.2435 48.3494 37.3623C49.6588 36.481 50.5318 35.1591 50.9682 33.6169C51.1865 34.9388 50.9682 36.2607 50.3135 37.5826C51.8412 36.7013 52.9324 35.1591 53.3688 33.3966C53.5871 31.6341 53.1506 29.6513 52.2776 28.3294C50.0953 25.0247 45.7306 23.7028 43.7664 20.1777" fill="#67C5B8"/>
<path d="M41.8022 6.29844C41.8022 6.29844 43.9846 8.50156 44.6393 10.925C45.294 13.3484 44.6393 15.3312 44.6393 16.4328C44.6393 17.5344 43.9846 19.7375 43.9846 19.7375L42.6752 20.3984C42.6752 20.3984 43.9846 16.4328 44.2028 14.8906C44.2028 13.3484 42.8934 8.28125 37.4375 6.07812L41.8022 6.29844Z" fill="#67C5B8"/>
<path d="M44.6389 21.2792C44.2024 21.0589 43.5477 21.2792 42.893 21.4995C42.6748 21.2792 42.2383 21.0589 42.2383 20.8386C42.2383 20.6183 42.4565 20.398 42.4565 20.1777C43.1112 19.9574 43.7659 19.5168 43.9842 19.0762C44.8571 19.2965 44.8571 20.1777 44.6389 21.2792Z" fill="#48B9A5"/>
<path d="M43.5484 7.84032C43.5484 7.84032 41.8025 3.87465 41.1478 2.77307C40.4931 1.6715 39.6202 1.45118 38.0925 1.01055C36.5649 0.569924 35.2554 0.349609 34.3825 0.349609C33.5096 0.349609 29.5813 2.99339 29.1448 3.43402C28.7084 4.09496 27.6172 10.9247 27.6172 11.3654C27.6172 11.3654 27.6172 10.7044 28.2719 10.2638C28.7084 9.82315 30.4543 8.28095 30.4543 8.28095L35.6919 5.85748L40.9296 6.95906L43.5484 7.84032Z" fill="#FE5F38"/>
<path d="M28.2715 10.4843C28.2715 10.4843 32.6362 6.29843 38.0921 6.95935C43.1116 7.39996 43.3298 8.28119 43.7663 8.06088C43.9845 8.06088 43.9845 7.84058 43.9845 7.84058L43.7663 7.62027C43.1116 7.39996 40.711 6.29843 37.8739 6.07812C34.8186 6.07812 31.1086 6.95935 29.7991 8.7218L28.2715 10.4843Z" fill="#F26F5A"/>
<path d="M11.4684 36.9227L11.6866 36.482C11.6866 36.2617 11.9048 36.2617 11.9048 36.0414C11.9048 35.8211 12.1231 35.8211 12.1231 35.6008C12.1231 35.3805 12.3413 35.3805 12.3413 35.1602L12.5595 34.9398L13.869 34.0586L12.7778 34.7195H12.5595H12.3413L12.1231 34.9398C12.1231 35.1602 11.9048 35.1602 11.9048 35.3805C11.9048 35.6008 11.6866 35.6008 11.6866 35.8211C11.6866 36.0414 11.4684 36.0414 11.4684 36.2617V36.9227C11.2501 36.9227 11.2501 37.143 11.0319 37.3633L10.8136 37.5836L11.0319 37.8039C11.0319 38.0242 10.8136 38.0242 10.8136 38.2446C10.8136 38.4649 10.5954 38.4649 10.5954 38.6852C10.5954 38.9055 10.3772 38.9055 10.3772 39.1258C10.3772 39.3461 10.1589 39.3461 10.1589 39.5664C10.1589 39.7868 9.94069 39.7868 9.94069 40.0071L9.50422 40.4477L9.06775 40.0071L8.84951 40.2274C8.84951 40.2274 8.63127 40.2274 8.63127 40.4477C8.63127 40.4477 8.41304 40.4477 8.41304 40.668C8.41304 40.668 8.1948 40.668 8.1948 40.8883L7.97656 41.1086L8.41304 40.668C8.41304 40.668 8.63127 40.668 8.63127 40.4477C8.63127 40.4477 8.84951 40.4477 8.84951 40.2274C8.84951 40.2274 9.06775 40.2274 9.06775 40.0071H9.28598C9.50422 40.0071 9.50422 39.7868 9.72246 39.7868C9.72246 39.5664 9.94069 39.5664 9.94069 39.3461C9.94069 39.1258 10.1589 39.1258 10.1589 38.9055C10.1589 38.6852 10.3772 38.6852 10.3772 38.4649C10.3772 38.2446 10.5954 38.2446 10.5954 38.0242C10.5954 37.8039 10.8136 37.8039 10.8136 37.5836L11.0319 37.3633L11.2501 37.143C11.4684 37.143 11.4684 37.143 11.4684 36.9227Z" fill="#F5B54C"/>
</svg>
