<svg width="188" height="30" viewBox="0 0 188 30" fill="none" xmlns="http://www.w3.org/2000/svg">
<path d="M6.82 8.48V15.14H18.484V19.82H6.82V29H0.988V3.8H20.032V8.48H6.82ZM32.308 29.288C30.268 29.288 28.432 28.868 26.8 28.028C25.192 27.164 23.932 25.976 23.02 24.464C22.108 22.952 21.652 21.236 21.652 19.316C21.652 17.396 22.108 15.68 23.02 14.168C23.932 12.656 25.192 11.48 26.8 10.64C28.432 9.776 30.268 9.344 32.308 9.344C34.348 9.344 36.172 9.776 37.78 10.64C39.388 11.48 40.648 12.656 41.56 14.168C42.472 15.68 42.928 17.396 42.928 19.316C42.928 21.236 42.472 22.952 41.56 24.464C40.648 25.976 39.388 27.164 37.78 28.028C36.172 28.868 34.348 29.288 32.308 29.288ZM32.308 24.68C33.748 24.68 34.924 24.2 35.836 23.24C36.772 22.256 37.24 20.948 37.24 19.316C37.24 17.684 36.772 16.388 35.836 15.428C34.924 14.444 33.748 13.952 32.308 13.952C30.868 13.952 29.68 14.444 28.744 15.428C27.808 16.388 27.34 17.684 27.34 19.316C27.34 20.948 27.808 22.256 28.744 23.24C29.68 24.2 30.868 24.68 32.308 24.68ZM55.8978 29.288C53.8578 29.288 52.0218 28.868 50.3898 28.028C48.7818 27.164 47.5218 25.976 46.6098 24.464C45.6978 22.952 45.2418 21.236 45.2418 19.316C45.2418 17.396 45.6978 15.68 46.6098 14.168C47.5218 12.656 48.7818 11.48 50.3898 10.64C52.0218 9.776 53.8578 9.344 55.8978 9.344C57.9378 9.344 59.7618 9.776 61.3698 10.64C62.9778 11.48 64.2378 12.656 65.1498 14.168C66.0618 15.68 66.5178 17.396 66.5178 19.316C66.5178 21.236 66.0618 22.952 65.1498 24.464C64.2378 25.976 62.9778 27.164 61.3698 28.028C59.7618 28.868 57.9378 29.288 55.8978 29.288ZM55.8978 24.68C57.3378 24.68 58.5138 24.2 59.4258 23.24C60.3618 22.256 60.8298 20.948 60.8298 19.316C60.8298 17.684 60.3618 16.388 59.4258 15.428C58.5138 14.444 57.3378 13.952 55.8978 13.952C54.4578 13.952 53.2698 14.444 52.3338 15.428C51.3978 16.388 50.9298 17.684 50.9298 19.316C50.9298 20.948 51.3978 22.256 52.3338 23.24C53.2698 24.2 54.4578 24.68 55.8978 24.68ZM89.9997 2.288V29H84.6357V26.768C83.2437 28.448 81.2277 29.288 78.5877 29.288C76.7637 29.288 75.1077 28.88 73.6197 28.064C72.1557 27.248 71.0037 26.084 70.1637 24.572C69.3237 23.06 68.9037 21.308 68.9037 19.316C68.9037 17.324 69.3237 15.572 70.1637 14.06C71.0037 12.548 72.1557 11.384 73.6197 10.568C75.1077 9.752 76.7637 9.344 78.5877 9.344C81.0597 9.344 82.9917 10.124 84.3837 11.684V2.288H89.9997ZM79.5597 24.68C80.9757 24.68 82.1517 24.2 83.0877 23.24C84.0237 22.256 84.4917 20.948 84.4917 19.316C84.4917 17.684 84.0237 16.388 83.0877 15.428C82.1517 14.444 80.9757 13.952 79.5597 13.952C78.1197 13.952 76.9317 14.444 75.9957 15.428C75.0597 16.388 74.5917 17.684 74.5917 19.316C74.5917 20.948 75.0597 22.256 75.9957 23.24C76.9317 24.2 78.1197 24.68 79.5597 24.68ZM118.705 3.8V29H112.873V18.668H101.425V29H95.5935V3.8H101.425V13.736H112.873V3.8H118.705ZM133.488 29.288C131.448 29.288 129.612 28.868 127.98 28.028C126.372 27.164 125.112 25.976 124.2 24.464C123.288 22.952 122.832 21.236 122.832 19.316C122.832 17.396 123.288 15.68 124.2 14.168C125.112 12.656 126.372 11.48 127.98 10.64C129.612 9.776 131.448 9.344 133.488 9.344C135.528 9.344 137.352 9.776 138.96 10.64C140.568 11.48 141.828 12.656 142.74 14.168C143.652 15.68 144.108 17.396 144.108 19.316C144.108 21.236 143.652 22.952 142.74 24.464C141.828 25.976 140.568 27.164 138.96 28.028C137.352 28.868 135.528 29.288 133.488 29.288ZM133.488 24.68C134.928 24.68 136.104 24.2 137.016 23.24C137.952 22.256 138.42 20.948 138.42 19.316C138.42 17.684 137.952 16.388 137.016 15.428C136.104 14.444 134.928 13.952 133.488 13.952C132.048 13.952 130.86 14.444 129.924 15.428C128.988 16.388 128.52 17.684 128.52 19.316C128.52 20.948 128.988 22.256 129.924 23.24C130.86 24.2 132.048 24.68 133.488 24.68ZM147.862 2.288H153.478V29H147.862V2.288ZM158.69 9.632H164.306V29H158.69V9.632ZM161.498 6.932C160.466 6.932 159.626 6.632 158.978 6.032C158.33 5.432 158.006 4.688 158.006 3.8C158.006 2.912 158.33 2.168 158.978 1.568C159.626 0.967998 160.466 0.667998 161.498 0.667998C162.53 0.667998 163.37 0.955998 164.018 1.532C164.666 2.108 164.99 2.828 164.99 3.692C164.99 4.628 164.666 5.408 164.018 6.032C163.37 6.632 162.53 6.932 161.498 6.932ZM178.878 29.288C176.814 29.288 174.954 28.868 173.298 28.028C171.666 27.164 170.382 25.976 169.446 24.464C168.534 22.952 168.078 21.236 168.078 19.316C168.078 17.396 168.534 15.68 169.446 14.168C170.382 12.656 171.666 11.48 173.298 10.64C174.954 9.776 176.814 9.344 178.878 9.344C180.918 9.344 182.694 9.776 184.206 10.64C185.742 11.48 186.858 12.692 187.554 14.276L183.198 16.616C182.19 14.84 180.738 13.952 178.842 13.952C177.378 13.952 176.166 14.432 175.206 15.392C174.246 16.352 173.766 17.66 173.766 19.316C173.766 20.972 174.246 22.28 175.206 23.24C176.166 24.2 177.378 24.68 178.842 24.68C180.762 24.68 182.214 23.792 183.198 22.016L187.554 24.392C186.858 25.928 185.742 27.128 184.206 27.992C182.694 28.856 180.918 29.288 178.878 29.288Z" fill="black"/>
</svg>
